<svg xmlns="http://www.w3.org/2000/svg" viewBox="0 0 1600 1000" role="img" aria-labelledby="title desc">
  <title id="title">Open Quran Illustration</title>
  <desc id="desc">Stylized Quran on stand with geometric arch background</desc>
  <defs>
    <linearGradient id="bg" x1="0" y1="0" x2="1" y2="1">
      <stop offset="0%" stop-color="#f7f5ec" />
      <stop offset="100%" stop-color="#dcecdf" />
    </linearGradient>
    <linearGradient id="emerald" x1="0" y1="0" x2="0" y2="1">
      <stop offset="0%" stop-color="#2f7a61" />
      <stop offset="100%" stop-color="#245f4b" />
    </linearGradient>
  </defs>
  <rect width="1600" height="1000" fill="url(#bg)" />
  <path d="M270 850c130-240 300-360 530-360s400 120 530 360H270Z" fill="#e8f2ea" />
  <path d="M470 820h660l-130-220H600Z" fill="#2f7a61" opacity="0.2" />
  <path d="M520 760h560l-110-190H630Z" fill="#d9b25f" opacity="0.22" />
  <path d="M640 560h320v180H640z" fill="url(#emerald)" />
  <path d="M600 600c90-70 150-100 200-100s110 30 200 100" fill="none" stroke="#f8f6ee" stroke-width="14" />
  <circle cx="800" cy="250" r="58" fill="#f7e4b5" />
  <path d="M840 220a58 58 0 1 0 26 48 46 46 0 1 1-26-48Z" fill="#2f7a61" />
</svg>
